HIERARCHY
ROOT Hips
{
  OFFSET -0.075261 99.3982 2.56729
  CHANNELS 6 Xposition Yposition Zposition Zrotation Xrotation Yrotation
  JOINT Spine
  {
    OFFSET 0 10.1816 0.1315
    CHANNELS 3 Zrotation Xrotation Yrotation
    JOINT Spine1
    {
      OFFSET 0 10.0835 -1.0008
      CHANNELS 3 Zrotation Xrotation Yrotation
      JOINT Spine2
      {
        OFFSET 0 9.1 -1.3734
        CHANNELS 3 Zrotation Xrotation Yrotation
        JOINT Neck
        {
          OFFSET 0 16.6717 -2.5162
          CHANNELS 3 Zrotation Xrotation Yrotation
          JOINT Head
          {
            OFFSET 0 9.6179 1.685
            CHANNELS 3 Zrotation Xrotation Yrotation
            End Site
            {
              OFFSET 0 0 0
            }
          }
        }
        JOINT LeftShoulder
        {
          OFFSET 4.5704 10.946 -2.628
          CHANNELS 3 Zrotation Xrotation Yrotation
          JOINT LeftArm
          {
            OFFSET 10.5924 -0.5246 -2.2321
            CHANNELS 3 Zrotation Xrotation Yrotation
            JOINT LeftForeArm
            {
              OFFSET 27.8415 -0.0001 0
              CHANNELS 3 Zrotation Xrotation Yrotation
              JOINT LeftHand
              {
                OFFSET 28.3288 0 0
                CHANNELS 3 Zrotation Xrotation Yrotation
                End Site
                {
                  OFFSET 0 0 0
                }
              }
            }
          }
        }
        JOINT RightShoulder
        {
          OFFSET -4.57 10.9462 -2.628
          CHANNELS 3 Zrotation Xrotation Yrotation
          JOINT RightArm
          {
            OFFSET -10.5928 -0.5248 -2.2321
            CHANNELS 3 Zrotation Xrotation Yrotation
            JOINT RightForeArm
            {
              OFFSET -27.8415 0 0
              CHANNELS 3 Zrotation Xrotation Yrotation
              JOINT RightHand
              {
                OFFSET -28.3288 0 0.0001
                CHANNELS 3 Zrotation Xrotation Yrotation
                End Site
                {
                  OFFSET 0 0 0
                }
              }
            }
          }
        }
      }
    }
  }
  JOINT LeftUpLeg
  {
    OFFSET 8.2078 -6.7517 -1.5996
    CHANNELS 3 Zrotation Xrotation Yrotation
    JOINT LeftLeg
    {
      OFFSET 0 -44.3705 0.2846
      CHANNELS 3 Zrotation Xrotation Yrotation
      JOINT LeftFoot
      {
        OFFSET 0 -44.4279 -2.9822
        CHANNELS 3 Zrotation Xrotation Yrotation
        JOINT LeftToeBase
        {
          OFFSET 0 -8.7287 10.7106
          CHANNELS 3 Zrotation Xrotation Yrotation
          End Site
          {
            OFFSET 0 0 0
          }
        }
      }
    }
  }
  JOINT RightUpLeg
  {
    OFFSET -8.2078 -6.7517 -1.5996
    CHANNELS 3 Zrotation Xrotation Yrotation
    JOINT RightLeg
    {
      OFFSET 0 -44.3705 0.2862
      CHANNELS 3 Zrotation Xrotation Yrotation
      JOINT RightFoot
      {
        OFFSET 0 -44.4277 -2.9838
        CHANNELS 3 Zrotation Xrotation Yrotation
        JOINT RightToeBase
        {
          OFFSET 0 -8.7287 10.7106
          CHANNELS 3 Zrotation Xrotation Yrotation
          End Site
          {
            OFFSET 0 0 0
          }
        }
      }
    }
  }
}
MOTION
Frames:	18
Frame Time:	0.0333333
-0.0752615 99.3982 2.56728 1.77363 7.51355 1.53061 1.14356 1.87534 -1.21475 0.2463 3.7545 -1.89134 0.246299 3.7545 -1.89134 6.44682 10.7553 -2.4168 5.36806 -10.8655 -2.38877 -9.22248 -1.79522 -7.16778 -67.3732 21.0075 14.3481 22.1673 -12.3366 -87.013 -0.176724 -5.94525 -25.171 16.0378 -0.340093 3.94143 52.3377 23.6522 8.15805 -46.1364 -12.0169 90.9182 -23.7444 -8.13393 15.5615 9.48972 -23.3925 7.68829 7.86018 76.684 -14.9835 -10.7761 -4.59105 -0.141202 -16.0283 -1.58807 15.9504 12.108 -4.75836 -0.481681 -9.40876 26.1717 0.0189319 -6.24517 -5.32862 -0.0573083 1.56746 -24.6202 -5.97308 
0.312854 102.522 8.07087 2.96105 8.7302 0.675213 1.25606 1.69616 -0.441333 0.195658 3.39614 -0.524707 0.195657 3.39614 -0.524707 6.67343 10.7326 -3.11321 5.02369 -9.46889 -3.55828 -7.63821 -1.75516 -7.01442 -66.9949 24.1094 17.4816 22.3254 -14.9174 -89.494 2.30994 -6.42853 -25.5905 16.3421 0.0631778 5.8113 50.5873 26.1177 13.2197 -46.6683 -13.7235 91.8056 -21.8897 -7.42341 13.3052 6.78694 -25.5356 6.71428 2.6292 63.6317 -8.48617 -8.66731 -7.43531 -0.26058 -14.8001 0.841159 14.0968 8.03164 1.32874 -4.36423 -6.16285 14.81 3.3998 -5.47847 5.68078 0.548623 -0.632682 -24.3098 -3.45993 
0.750053 104.85 13.3773 4.54836 10.2971 0.0809847 0.941786 1.58115 0.199263 0.20193 3.16346 0.469105 0.201928 3.16346 0.469105 6.27965 7.11172 -3.69074 4.51561 -8.57915 -4.92323 -7.03859 -1.73812 -6.96343 -66.0624 25.8863 18.9766 21.0247 -16.7779 -92.0493 2.23726 -6.279 -23.6439 16.2347 0.362329 7.22208 48.3803 28.3749 17.2095 -46.594 -15.8288 92.7334 -20.2754 -6.79286 10.985 3.19204 -26.6654 5.13895 1.44035 47.1816 -6.02052 -8.34065 -6.34335 0.00781531 -13.2138 -0.577362 12.3683 4.65075 3.1493 -6.79631 -5.23939 11.7957 5.46339 -1.37672 11.0558 0.260398 -4.40498 -16.0586 -0.565544 
1.00193 106.325 18.702 5.94018 12.2381 -0.438664 0.428282 1.38306 0.866621 0.115376 2.76675 1.67623 0.115376 2.76676 1.67623 6.54023 3.34618 -4.70385 3.67893 -8.03458 -6.63509 -6.95564 -1.7245 -7.05826 -64.4468 26.6926 18.9573 20.4648 -18.1415 -94.1863 1.91355 -6.08526 -22.3069 15.606 0.46775 7.83723 47.1357 29.6459 19.4204 -43.1807 -18.1776 95.0103 -17.1825 -6.53644 10.6777 0.554668 -26.4471 4.28088 0.488312 27.9239 -5.27348 -8.01224 -0.826873 0.418588 -11.534 -3.55226 10.6149 2.84782 3.79367 -6.57147 -6.58941 11.2979 2.46773 2.52674 16.9989 -0.497695 -5.15487 -8.02325 0.517059 
1.07978 106.634 24.0945 7.27171 13.0965 -1.15817 -0.313023 1.25599 1.33297 -0.101694 2.51089 2.63331 -0.101691 2.5109 2.63331 8.15254 0.883023 -5.5267 2.34906 -8.51198 -7.63591 -6.57689 -1.68267 -7.33713 -62.6999 27.0395 18.5968 21.1062 -19.39 -95.7923 3.2265 -6.21357 -22.3645 16.0791 0.602242 8.37771 46.3689 29.4546 20.5689 -40.7569 -19.2957 97.0132 -14.9947 -6.64491 12.1564 -1.02127 -24.1635 4.68247 -1.08264 9.34193 -7.16873 -8.4937 4.87474 0.543768 -10.895 -3.74493 9.19579 1.4119 2.06492 -4.90939 -9.16926 19.6095 -2.99855 3.16882 18.3856 -0.823238 0.00354398 -0.0160777 -0.00384557 
1.16017 105.587 29.6214 7.97588 12.2627 -1.32988 -0.61726 1.3306 1.36686 -0.167817 2.65982 2.63175 -0.167817 2.65982 2.63175 9.63633 0.764312 -5.87895 1.48012 -10.3785 -7.94182 -5.86293 -1.60079 -7.8956 -60.9477 27.1549 17.5994 21.0003 -19.9443 -96.6469 4.71781 -6.43351 -23.1559 17.9378 0.847021 9.06397 45.9137 28.7259 20.9387 -40.6097 -19.5756 97.8961 -15.3157 -6.78591 12.8589 -1.35858 -26.1604 5.50212 -2.42596 8.08952 -10.1674 -8.19593 5.19081 0.345266 -9.72566 -1.75681 6.90283 1.165 1.02658 -3.16809 -12.903 31.3803 -4.68694 2.44085 16.398 -0.712444 0.174192 -1.60707 -0.598285 
1.19713 103.93 35.0535 8.58857 9.95174 -1.15453 -0.766761 1.68049 1.22144 -0.0936696 3.36222 2.11621 -0.0936657 3.36222 2.11621 9.92156 2.17997 -6.09372 1.08026 -12.0123 -8.3829 -5.75985 -1.5096 -8.79559 -58.9025 26.6414 14.2011 19.8323 -18.631 -95.3214 4.15101 -6.45015 -24.8496 19.8939 0.976746 9.16451 46.6081 28.0013 19.9117 -39.2236 -19.0594 98.5421 -16.2932 -6.1918 10.5281 -2.10353 -24.7227 5.28186 -2.53636 10.4181 -11.1583 -5.35749 5.83957 0.0271689 -7.84464 0.181175 4.12402 0.645788 1.12224 -1.55903 -15.8894 43.2525 -2.02384 0.634506 14.9796 -0.351629 0.289274 -2.4632 -0.943317 
1.30136 101.561 40.2869 9.65925 6.52021 -1.62222 -0.914431 2.26873 1.11228 -0.219019 4.54097 1.62287 -0.219018 4.54097 1.62287 10.1347 3.61576 -6.16737 -0.0323181 -12.0425 -8.55709 -7.38335 -1.4108 -9.99586 -56.7368 25.7223 8.55257 18.0231 -15.6225 -91.8299 3.77536 -6.29924 -25.0116 21.3788 0.872032 8.4517 48.4631 26.8432 17.583 -37.4403 -16.8237 97.7922 -17.7849 -4.79328 5.71777 -3.91008 -20.8804 3.60346 -1.56365 15.8517 -9.79871 -0.9179 1.25472 -0.00291709 -1.41765 -2.36668 2.22476 -1.23091 0.752726 -0.55621 -20.0694 55.9858 2.85858 -1.18604 14.7412 -0.0122547 -0.0912247 -2.55264 -0.603728 
1.3681 98.621 45.0678 11.0117 3.1948 -3.07816 -1.04236 2.89173 0.670934 -0.707712 5.79063 0.597293 -0.707711 5.79063 0.597294 10.0477 4.22121 -5.4983 -0.663498 -11.2586 -7.47067 -11.5175 -1.19097 -11.7925 -54.7515 23.9165 2.3469 15.7483 -11.7313 -88.0978 9.53208 -6.49817 -22.0163 22.3662 0.712964 7.68432 50.15 25.3536 15.5786 -36.8695 -12.594 94.6729 -20.9314 -3.25241 -0.092654 -6.09005 -21.4206 1.61438 -0.828694 31.2896 -7.53799 3.85265 -13.7111 1.72074 -3.42978 -2.25099 3.11666 -4.22027 -1.56822 0.39475 -29.7138 68.369 10.738 -1.68037 13.9415 0.023616 -0.890462 -2.76198 0.102626 
0.938207 97 49.6296 11.8552 1.34515 -5.54821 -1.32763 3.2301 -0.0463837 -1.11587 6.47862 -0.921946 -1.11587 6.47863 -0.921946 9.13205 5.21324 -4.20283 0.35413 -11.8598 -5.64717 -16.4738 -0.629322 -14.5827 -53.8912 19.5584 -3.64847 15.0262 -7.34247 -84.1251 18.5333 -8.17929 -23.7138 23.1786 0.538034 6.92901 50.926 24.9744 13.7448 -33.4889 -8.50916 91.7062 -23.315 -1.72404 -6.2461 -7.13012 -19.2667 1.80844 -0.26876 36.9224 -5.90413 4.41735 -20.0723 2.63472 -4.31508 -3.12353 3.74879 -6.57115 -6.32493 2.34626 -44.9796 76.3624 24.1997 -2.54986 12.5241 0.101884 -1.76254 -3.13029 0.83656 
-0.0580262 96.728 54.1942 11.9296 0.936685 -8.8451 -1.58466 3.27667 -0.610428 -1.16581 6.58106 -2.09791 -1.16581 6.58107 -2.09792 7.01753 6.4488 -3.07033 1.23893 -13.3131 -4.15114 -19.4389 0.0936873 -17.4621 -54.8572 15.0978 -8.40323 15.4849 -4.63589 -81.3744 23.3366 -11.9771 -31.5563 23.8943 0.104636 5.31187 51.5166 27.3314 10.1329 -29.5296 -7.42503 90.8106 -24.9715 -0.354296 -12.1967 -6.20011 -15.6257 4.24378 -0.942141 36.6773 -4.3122 6.45798 -23.3788 3.3295 -3.53822 -3.97582 3.42164 -7.20984 -13.1544 4.67184 -57.9269 80.1644 38.6883 -3.91301 9.79368 0.267128 -2.16823 -3.16017 1.2225 
-1.46562 97.908 59.0689 11.5793 0.951822 -12.3107 -1.66697 3.2993 -1.35711 -0.775977 6.6259 -3.54648 -0.775979 6.6259 -3.54648 2.72286 5.60297 -1.75232 1.25635 -13.0544 -2.6149 -20.407 0.567304 -19.2905 -56.1536 13.6469 -10.9156 15.5279 -5.05943 -83.2421 27.3077 -14.3137 -34.4106 22.7526 -0.484274 3.23606 53.0998 32.5623 5.33307 -32.0802 -9.1828 91.0607 -29.6659 0.285953 -16.5824 -5.31371 -9.87201 6.26514 -1.64314 31.4146 -1.98704 7.45271 -21.6325 3.00586 -3.51504 -8.14628 2.60186 -6.34975 -19.5651 5.773 -49.1443 79.7645 32.6853 -3.98546 7.12364 0.247179 -1.64022 -3.75657 0.549392 
-3.32966 100.527 64.4237 10.7172 0.821224 -15.5017 -1.58108 3.42745 -2.39631 -0.0751408 6.86718 -5.51445 -0.075143 6.86718 -5.51445 -1.50529 2.8206 -0.192213 0.961169 -11.5246 -0.529247 -20.576 0.795754 -20.2287 -56.6186 13.3799 -11.8664 14.7222 -7.69188 -89.2569 25.4677 -11.5965 -29.8201 20.2355 -0.894345 1.59484 55.3514 37.7401 0.44622 -35.4732 -12.2797 91.3826 -31.9152 0.308451 -17.3302 -4.23518 -2.47915 7.40004 -1.20607 21.5576 -1.59758 -3.38119 -6.65358 0.465461 0.821883 -15.7424 1.8905 -4.55654 -22.9957 5.40541 -27.1899 72.9588 11.7374 -4.54452 5.32489 0.299222 -0.761958 -6.17123 -0.995985 
-5.64337 103.252 69.9891 9.37189 0.962102 -18.4545 -1.29303 3.47752 -3.40648 0.549335 6.94235 -7.32522 0.549329 6.94235 -7.3252 -2.32854 0.436077 1.21843 0.117845 -10.8542 1.94737 -20.0449 0.828731 -20.5725 -56.5887 13.3419 -12.1266 13.5211 -10.8369 -95.8157 15.324 -6.79702 -23.6529 18.4746 -1.16154 0.336053 56.8844 40.6031 -3.9512 -33.5185 -14.6272 92.4725 -29.0454 0.158431 -15.8982 -2.7582 3.01983 9.0093 -0.937834 15.3372 -1.81485 -8.53759 6.1604 0.360373 2.42343 -19.5134 2.83749 -2.10317 -23.9091 4.29006 -15.1214 60.3554 0.524557 -6.22801 3.64122 0.43821 -0.67555 -7.55465 -1.49389 
-8.27498 105.409 75.6896 8.20426 1.9625 -21.3816 -0.87242 3.23856 -4.0978 1.00913 6.44101 -8.48913 1.00913 6.441 -8.48912 -0.637575 -0.632397 2.23735 -0.928705 -10.5716 4.14154 -18.9455 0.725263 -20.5334 -55.6903 15.4332 -11.8708 14.0912 -13.4439 -99.9375 11.4412 -5.05943 -21.0199 17.566 -1.39944 -0.829374 57.8297 41.3311 -7.72607 -31.756 -15.8761 93.496 -25.304 0.31107 -15.0859 -0.361633 5.74156 10.6755 -1.14381 13.7451 -2.22923 -13.03 15.2923 0.963001 4.78264 -15.5243 3.19079 0.718242 -23.7756 2.58609 -9.13349 44.1328 -2.18009 -6.39252 3.67855 0.486709 -1.31058 -6.78608 -0.647325 
-11.0663 106.521 81.572 7.75917 3.41078 -24.1847 -0.417261 2.74258 -4.47543 1.35229 5.43122 -9.13463 1.35229 5.43122 -9.13464 1.18071 -1.48327 2.80019 -1.30517 -9.28773 5.51195 -18.2078 0.618007 -20.3238 -54.0018 19.1082 -10.9774 15.8034 -15.6687 -102.13 15.4392 -5.44781 -21.1667 16.4737 -1.58566 -1.88498 59.0586 40.7475 -11.2232 -33.4116 -17.1602 93.858 -21.5776 0.457829 -14.38 1.47225 8.1162 11.3294 -0.928891 13.504 -1.03652 -14.9696 21.5135 1.63061 -3.28712 -6.26414 6.73399 2.84437 -23.2021 0.394841 -4.48951 27.2418 -1.07464 -3.12361 4.83366 0.265442 -1.41521 -4.76085 0.0673476 
-13.996 106.729 87.4036 8.06046 4.03293 -26.593 -0.0898648 2.2787 -4.58119 1.31304 4.50317 -9.35415 1.31304 4.50317 -9.35412 2.45095 -1.75628 2.76949 -0.933678 -8.26751 5.66926 -17.6983 0.48594 -19.887 -53.0808 21.4973 -9.83113 15.6781 -16.7952 -103.04 15.1026 -6.54405 -24.1666 14.9292 -1.69877 -2.80551 61.1172 39.5641 -15.0207 -37.7778 -18.7598 93.318 -19.1158 0.399603 -13.493 1.95446 11.4949 10.9935 -0.194108 14.403 0.894899 -14.2917 24.3029 1.72554 -18.2286 -0.383745 14.4322 4.29913 -21.7087 -1.2189 -1.32923 12.2814 -0.969752 2.35311 7.08553 -0.294339 -0.940878 -1.95942 0.423854 
-17.1012 105.701 92.9541 8.76551 2.76535 -28.6205 -0.226763 2.08761 -4.36489 0.631997 4.15071 -8.89205 0.632006 4.15071 -8.89206 3.58026 -1.03117 2.10477 -0.317737 -8.42554 4.66783 -16.7367 0.250471 -19.0706 -53.7851 21.9402 -8.71762 13.2233 -16.2395 -102.428 9.16855 -7.17207 -28.4991 13.8579 -1.82656 -3.78046 63.3604 37.7465 -18.7623 -43.6982 -19.7771 91.804 -19.2501 0.157606 -12.9395 1.91805 12.67 10.2794 0.667908 23.5587 0.628318 -14.9806 23.096 1.9603 -22.3164 -0.59742 18.4841 5.41422 -22.4801 -1.33703 -0.907419 9.10934 -4.3179 4.39842 7.69702 -0.63391 -1.05609 -0.0533586 1.06659 
